<svg id="Layer_5" enable-background="new 0 0 64 64" height="512" viewBox="0 0 64 64" width="512" xmlns="http://www.w3.org/2000/svg"><g><g><g><circle cx="32" cy="32" fill="#69d6f4" r="12"/></g><g><circle cx="14" cy="32" fill="#fcd770" r="5"/></g><g><path d="m39 6c2.21 0 4 1.79 4 4s-1.79 4-4 4h-14c-2.21 0-4-1.79-4-4s1.79-4 4-4c.45 0 .87.09 1.27.22.75-2.44 3.03-4.22 5.73-4.22s4.98 1.78 5.73 4.22c.4-.13.82-.22 1.27-.22z" fill="#e6e9ed"/></g><g><path d="m40 54h8c0 4.42-3.58 8-8 8h-8c0-4.42 3.58-8 8-8z" fill="#a0d468"/></g><g><path d="m32 56v6c-4.42 0-8-3.58-8-8v-6c4.42 0 8 3.58 8 8z" fill="#b4dd7f"/></g></g><g><path d="m13 20h2v4h-2z"/><path d="m5.929 22.929h2v4h-2z" transform="matrix(.707 -.707 .707 .707 -15.598 12.201)"/><path d="m1 31h5v2h-5z"/><path d="m4.929 38.071h4v2h-4z" transform="matrix(.707 -.707 .707 .707 -25.598 16.343)"/><path d="m13 40h2v4h-2z"/><path d="m63 31h-2.132l.964-1.445-1.664-1.11-1.703 2.555h-2.465v-2.465l2.555-1.703-1.11-1.664-1.445.964v-2.132h-2v2.132l-1.445-.964-1.11 1.664 2.555 1.703v2.465h-2.465l-1.703-2.555-1.664 1.11.964 1.445h-2.132v2h2.132l-.964 1.445 1.664 1.11 1.703-2.555h2.465v2.465l-2.555 1.703 1.11 1.664 1.445-.964v2.132h2v-2.132l1.445.964 1.11-1.664-2.555-1.703v-2.465h2.465l1.703 2.555 1.664-1.11-.964-1.445h2.132z"/><path d="m45 32c0-7.168-5.832-13-13-13-6.211 0-11.411 4.38-12.691 10.212-1.006-1.907-3.007-3.212-5.309-3.212-3.309 0-6 2.691-6 6s2.691 6 6 6c2.302 0 4.303-1.305 5.309-3.212 1.28 5.832 6.48 10.212 12.691 10.212 7.168 0 13-5.832 13-13zm-31 4c-2.206 0-4-1.794-4-4s1.794-4 4-4 4 1.794 4 4-1.794 4-4 4zm14.991 3h6.018c-.789 2.473-1.935 4-3.009 4s-2.22-1.527-3.009-4zm-7.94-6h4.971c.046 1.419.184 2.763.409 4h-4.217c-.626-1.221-1.034-2.57-1.163-4zm10.949-12c1.075 0 2.22 1.527 3.009 4h-6.018c.789-2.473 1.934-4 3.009-4zm3.519 6c.244 1.209.408 2.553.46 4h-7.958c.052-1.447.217-2.791.46-4zm7.43 4h-4.971c-.046-1.419-.184-2.763-.409-4h4.217c.626 1.221 1.034 2.57 1.163 4zm0 2c-.13 1.43-.537 2.779-1.164 4h-4.217c.225-1.237.364-2.581.409-4zm-16.927-2h-4.971c.13-1.43.537-2.779 1.164-4h4.217c-.226 1.237-.365 2.581-.41 4zm1.999 2h7.958c-.052 1.447-.217 2.791-.46 4h-7.038c-.244-1.209-.408-2.553-.46-4zm7.693 9.341c.553-.919 1.023-2.046 1.391-3.341h3.374c-1.247 1.507-2.891 2.666-4.765 3.341zm4.765-17.341h-3.374c-.368-1.295-.838-2.422-1.391-3.341 1.874.675 3.518 1.834 4.765 3.341zm-12.193-3.341c-.553.919-1.023 2.046-1.391 3.341h-3.374c1.247-1.507 2.891-2.666 4.765-3.341zm-4.765 17.341h3.374c.368 1.295.838 2.422 1.391 3.341-1.874-.675-3.518-1.834-4.765-3.341z"/><path d="m25 15h14c2.757 0 5-2.243 5-5 0-2.972-2.626-5.396-5.65-4.952-1.134-2.455-3.581-4.048-6.35-4.048s-5.216 1.593-6.35 4.048c-3.023-.447-5.65 1.98-5.65 4.952 0 2.757 2.243 5 5 5zm0-8c.294 0 .604.056.949.172l.971.328.303-.979c.651-2.106 2.571-3.521 4.777-3.521s4.126 1.415 4.777 3.52l.303.98.971-.327c.345-.117.655-.173.949-.173 1.654 0 3 1.346 3 3s-1.346 3-3 3h-14c-1.654 0-3-1.346-3-3s1.346-3 3-3z"/><path d="m33 56.356v-.356c0-4.962-4.038-9-9-9h-1v7c0 4.624 3.507 8.441 8 8.941v.059h1 1 7c4.962 0 9-4.038 9-9v-1h-9c-2.826 0-5.349 1.312-7 3.356zm-8-2.356v-4.929c3.388.487 6 3.408 6 6.929v4.929c-3.388-.487-6-3.408-6-6.929zm15 7h-6.929c.487-3.388 3.408-6 6.929-6h6.929c-.487 3.388-3.408 6-6.929 6z"/><path d="m18.542 9.749-1.037-1.71c-4.941 2.996-8.787 7.366-11.121 12.637l1.829.81c2.167-4.896 5.739-8.954 10.329-11.737z"/><path d="m8.213 42.514-1.829.81c2.933 6.624 8.467 11.971 15.185 14.669l.745-1.855c-6.238-2.507-11.377-7.472-14.101-13.624z"/><path d="m49.333 51.379 1.334 1.49c3.216-2.879 5.757-6.509 7.349-10.499l-1.857-.741c-1.478 3.705-3.838 7.076-6.826 9.75z"/><path d="m56.159 22.371 1.857-.741c-2.221-5.567-6.266-10.365-11.39-13.51l-1.046 1.704c4.76 2.921 8.516 7.377 10.579 12.547z"/></g></g></svg>