<svg id="Capa_1" enable-background="new 0 0 512 512" height="512" viewBox="0 0 512 512" width="512" xmlns="http://www.w3.org/2000/svg"><path d="m339.292 310.05c70.749 0 101.179 9.371 101.179 23.428 0 27.177-51.731 9.371-51.731 35.611 0 25.372 121.719 8.434 123.24 36.548.933 17.242-31.904 21.215-75.314 22.491-48.307 1.42-104.222-5.623-104.983 16.868-.792 23.408 48.688 8.888 48.688 36.065 0 41.717-248.744 40.78-248.744 0 0-27.177 49.479-12.657 48.688-36.065-.761-22.491-56.675-15.448-104.983-16.868-43.41-1.276-76.247-5.25-75.314-22.491 1.521-28.114 123.241-11.176 123.241-36.548 0-26.24-51.731-8.434-51.731-35.611 0-14.057 30.43-23.428 101.179-23.428z" fill="#baeefc"/><path d="m331.684 444.997c.434-12.836 18.835-16.051 43.531-16.711-39.815-.338-76.908-1.579-77.527 16.711-.792 23.408 48.688 8.888 48.688 36.065 0 18.834-50.701 28.973-106.322 30.677 67.019 2.043 140.318-8.032 140.318-30.677 0-27.176-49.479-12.657-48.688-36.065z" fill="#a2e1f8"/><path d="m388.74 369.089c0-26.24 51.731-8.434 51.731-35.611 0-14.057-30.43-23.429-101.179-23.429h-33.996c70.749 0 101.179 9.371 101.179 23.429 0 27.177-51.731 9.371-51.731 35.611 0 25.372 121.719 8.434 123.24 36.548.933 17.242-31.904 21.215-75.314 22.491-.92.027-1.844.05-2.769.071 12.074.109 24.659.285 36.765-.071 43.41-1.276 76.247-5.25 75.314-22.491-1.521-28.114-123.24-11.176-123.24-36.548z" fill="#a2e1f8"/><path d="" style="fill:none;stroke:#000;stroke-width:15.453;stroke-linecap:round;stroke-linejoin:round;stroke-miterlimit:10"/><path d="m256 116.431-72.984 126.413c-32.437 56.183 8.11 126.411 72.984 126.411 64.874 0 105.421-70.228 72.984-126.411z" fill="#82d5f2"/><path d="m256 346.075c-4.267 0-7.726-3.459-7.726-7.726s3.459-7.726 7.726-7.726c16.501 0 31.277-8.531 39.528-22.822 2.134-3.696 6.859-4.962 10.554-2.828 3.696 2.134 4.962 6.859 2.828 10.554-11.044 19.129-30.823 30.548-52.91 30.548z" fill="#67c6e4"/><path d="m344.596 36.056-32.564 56.402c-14.473 25.068 3.618 56.402 32.564 56.402 28.946 0 47.037-31.335 32.564-56.402z" fill="#baeefc"/><path d="m202.431 0-22.75 39.404c-10.111 17.513 2.528 39.404 22.75 39.404 20.222 0 32.861-21.891 22.75-39.404z" fill="#82d5f2"/></svg>